<svg aria-hidden="true" style="position:absolute;width:0;height:0" xmlns="http://www.w3.org/2000/svg" overflow="hidden">
<defs>

<symbol id="github" viewBox="0 0 61 32">
<path d="M29.587 0.919c-5.090 0.274-9.732 3.063-12.363 7.436-2.022 3.357-2.682 7.142-1.935 11.098 0.442 2.337 1.524 4.637 3.124 6.634 1.773 2.21 4.028 3.84 6.654 4.805 0.655 0.244 0.996 0.269 1.244 0.091 0.32-0.229 0.33-0.269 0.31-1.956-0.005-0.838-0.025-1.534-0.036-1.544s-0.188 0.010-0.391 0.041c-0.777 0.127-2.118 0.056-2.89-0.147-0.325-0.091-0.848-0.376-1.143-0.635-0.3-0.264-0.549-0.625-0.747-1.092-0.498-1.158-0.94-1.763-1.636-2.235-0.391-0.269-0.615-0.498-0.66-0.686-0.041-0.168 0-0.218 0.249-0.284 0.589-0.157 1.564 0.218 2.24 0.863 0.137 0.127 0.396 0.462 0.579 0.742 0.736 1.128 1.549 1.651 2.565 1.651 0.437 0 1.27-0.152 1.651-0.3 0.234-0.091 0.239-0.102 0.305-0.391 0.142-0.625 0.381-1.128 0.731-1.554 0.112-0.137 0.188-0.244 0.173-0.244-0.102 0-1.102-0.168-1.529-0.254-1.25-0.254-2.499-0.843-3.398-1.595-1.072-0.899-1.844-2.662-2.037-4.627-0.051-0.523-0.030-1.818 0.030-2.215 0.157-1.031 0.66-2.113 1.356-2.936l0.147-0.178-0.117-0.361c-0.229-0.726-0.269-1.554-0.117-2.438 0.071-0.401 0.345-1.26 0.422-1.305 0.030-0.020 0.198-0.041 0.366-0.041 0.696 0 2.26 0.62 3.429 1.356l0.442 0.274 0.295-0.076c2.27-0.579 4.881-0.579 7.147 0l0.295 0.076 0.493-0.3c0.98-0.594 1.793-0.975 2.58-1.204 0.483-0.142 1.087-0.173 1.178-0.066 0.076 0.096 0.35 0.985 0.411 1.336 0.147 0.874 0.112 1.671-0.117 2.382l-0.117 0.371 0.147 0.173c0.67 0.792 1.163 1.829 1.341 2.839 0.127 0.721 0.086 2.372-0.076 3.23-0.081 0.416-0.3 1.158-0.467 1.585-0.559 1.402-1.417 2.301-2.88 3.032-0.914 0.452-1.727 0.681-3.297 0.914l-0.213 0.036 0.234 0.284c0.284 0.345 0.483 0.762 0.63 1.305 0.107 0.386 0.117 0.533 0.142 3.124 0.030 2.514 0.036 2.728 0.122 2.855 0.259 0.381 0.63 0.406 1.463 0.091 3.073-1.158 5.481-3.058 7.396-5.841 1.666-2.423 2.53-5.115 2.636-8.218 0.157-4.485-1.651-8.767-4.998-11.865-2.25-2.077-5.11-3.444-8.137-3.891-0.584-0.086-2.367-0.224-2.489-0.193-0.015 0-0.345 0.020-0.736 0.046z"/>
</symbol>


</defs>
</svg>